{
  "accessors": [
    {
      "bufferView": 2,
      "componentType": 5126,
      "count": 11848,
      "max": [
        2.0834360122680664,
        16.244781494140625,
        0.73074400424957275
      ],
      "min": [
        -1.8425840139389038,
        14.693606376647949,
        -0.60926097631454468
      ],
      "type": "VEC3"
    },
    {
      "bufferView": 2,
      "byteOffset": 142176,
      "componentType": 5126,
      "count": 11848,
      "max": [
        0.99863815307617188,
        0.99998420476913452,
        0.99973481893539429
      ],
      "min": [
        -0.99949121475219727,
        -0.99979126453399658,
        -0.99990421533584595
      ],
      "type": "VEC3"
    },
    {
      "bufferView": 3,
      "componentType": 5126,
      "count": 11848,
      "max": [
        0.98768305778503418,
        0.99354732036590576,
        0.99999409914016724,
        1
      ],
      "min": [
        -0.999969482421875,
        -0.99984622001647949,
        -0.99954277276992798,
        -1
      ],
      "type": "VEC4"
    },
    {
      "bufferView": 1,
      "componentType": 5126,
      "count": 11848,
      "max": [
        0.99641001224517822,
        0.99804002046585083
      ],
      "min": [
        0.0019499999471008778,
        0.0019499999471008778
      ],
      "type": "VEC2"
    },
    {
      "bufferView": 0,
      "componentType": 5125,
      "count": 67530,
      "max": [
        11847
      ],
      "min": [
        0
      ],
      "type": "SCALAR"
    }
  ],
  "asset": {
    "extras": {
      "author": "laducklife (https://sketchfab.com/laducklife)",
      "license": "SKETCHFAB Standard (https://sketchfab.com/licenses)",
      "source": "https://sketchfab.com/models/60b97ac8ece04032aadfae5f6ddb5b68",
      "title": "Football Adidas Used"
    },
    "generator": "Sketchfab-3.19.6",
    "version": "2.0"
  },
  "bufferViews": [
    {
      "buffer": 0,
      "byteLength": 270120,
      "byteOffset": 0,
      "name": "floatBufferViews",
      "target": 34963
    },
    {
      "buffer": 0,
      "byteLength": 94784,
      "byteOffset": 270120,
      "byteStride": 8,
      "name": "floatBufferViews",
      "target": 34962
    },
    {
      "buffer": 0,
      "byteLength": 284352,
      "byteOffset": 364904,
      "byteStride": 12,
      "name": "floatBufferViews",
      "target": 34962
    },
    {
      "buffer": 0,
      "byteLength": 189568,
      "byteOffset": 649256,
      "byteStride": 16,
      "name": "floatBufferViews",
      "target": 34962
    }
  ],
  "buffers": [
    {
      "byteLength": 838824,
      "uri": "scene.bin"
    }
  ],
  "images": [
    {
      "uri": "textures/model_10k_baseColor.jpeg"
    },
    {
      "uri": "textures/model_10k_metallicRoughness.png"
    }
  ],
  "materials": [
    {
      "doubleSided": true,
      "name": "model_10k",
      "pbrMetallicRoughness": {
        "baseColorFactor": [
          1,
          1,
          1,
          1
        ],
        "baseColorTexture": {
          "index": 0,
          "texCoord": 0
        },
        "metallicFactor": 0.2195121951,
        "metallicRoughnessTexture": {
          "index": 1,
          "texCoord": 0
        },
        "roughnessFactor": 1
      }
    }
  ],
  "meshes": [
    {
      "primitives": [
        {
          "attributes": {
            "NORMAL": 1,
            "POSITION": 0,
            "TANGENT": 2,
            "TEXCOORD_0": 3
          },
          "indices": 4,
          "material": 0,
          "mode": 4
        }
      ]
    }
  ],
  "nodes": [
    {
      "children": [
        1
      ],
      "name": "RootNode (gltf orientation matrix)",
      "rotation": [
        -0.70710678118654746,
        -0,
        -0,
        0.70710678118654757
      ]
    },
    {
      "children": [
        2
      ],
      "matrix": [
        0.9990241527557373,
        -0.016635743901133537,
        -0.040913790464401245,
        0,
        -0.043123506009578705,
        -0.16727098822593689,
        -0.98496741056442261,
        0,
        0.0095419762656092644,
        0.985770583152771,
        -0.16782514750957489,
        0,
        0.66662353277206421,
        17.998859405517578,
        15.312508583068848,
        1
      ],
      "name": "RootNode (model correction matrix)"
    },
    {
      "children": [
        3
      ],
      "name": "model 10k.obj.cleaner.materialmerger.gles"
    },
    {
      "mesh": 0,
      "name": ""
    }
  ],
  "samplers": [
    {
      "magFilter": 9729,
      "minFilter": 9987,
      "wrapS": 10497,
      "wrapT": 10497
    }
  ],
  "scene": 0,
  "scenes": [
    {
      "name": "OSG_Scene",
      "nodes": [
        0
      ]
    }
  ],
  "textures": [
    {
      "sampler": 0,
      "source": 0
    },
    {
      "sampler": 0,
      "source": 1
    }
  ]
}

